<mxfile host="app.diagrams.net" agent="Mozilla/5.0 (Windows NT 10.0; Win64; x64) AppleWebKit/537.36 (KHTML, like Gecko) Chrome/136.0.0.0 Safari/537.36" version="27.0.3">
  <diagram name="Página-1" id="XxBVSn2e1p1MuaNkhbZb">
    <mxGraphModel dx="1197" dy="1120" grid="1" gridSize="10" guides="1" tooltips="1" connect="1" arrows="1" fold="1" page="1" pageScale="1" pageWidth="1169" pageHeight="827" math="0" shadow="0">
      <root>
        <mxCell id="0" />
        <mxCell id="1" parent="0" />
        <mxCell id="G87gnfGh_C6f1je5w9Sp-18" value="" style="group" vertex="1" connectable="0" parent="1">
          <mxGeometry x="509.9922605363985" y="356" width="119.57547892720305" height="177.90537953795376" as="geometry" />
        </mxCell>
        <mxCell id="G87gnfGh_C6f1je5w9Sp-14" value="" style="sketch=0;points=[[0,0,0],[0.25,0,0],[0.5,0,0],[0.75,0,0],[1,0,0],[0,1,0],[0.25,1,0],[0.5,1,0],[0.75,1,0],[1,1,0],[0,0.25,0],[0,0.5,0],[0,0.75,0],[1,0.25,0],[1,0.5,0],[1,0.75,0]];outlineConnect=0;fontColor=#232F3E;fillColor=#7AA116;strokeColor=#ffffff;dashed=0;verticalLabelPosition=bottom;verticalAlign=top;align=center;html=1;fontSize=12;fontStyle=0;aspect=fixed;shape=mxgraph.aws4.resourceIcon;resIcon=mxgraph.aws4.iot_analytics;container=1;" vertex="1" parent="G87gnfGh_C6f1je5w9Sp-18">
          <mxGeometry x="4.287739463601497" width="111" height="111" as="geometry" />
        </mxCell>
        <mxCell id="G87gnfGh_C6f1je5w9Sp-15" value="AWS IoT Analytics" style="text;html=1;align=center;verticalAlign=middle;whiteSpace=wrap;rounded=0;fontStyle=4" vertex="1" parent="G87gnfGh_C6f1je5w9Sp-18">
          <mxGeometry y="122.99448844884483" width="119.57547892720306" height="54.91089108910891" as="geometry" />
        </mxCell>
        <mxCell id="G87gnfGh_C6f1je5w9Sp-19" value="" style="group" vertex="1" connectable="0" parent="1">
          <mxGeometry x="509.9922605363985" y="561" width="119.57547892720305" height="165.91537953795364" as="geometry" />
        </mxCell>
        <mxCell id="G87gnfGh_C6f1je5w9Sp-16" value="" style="sketch=0;points=[[0,0,0],[0.25,0,0],[0.5,0,0],[0.75,0,0],[1,0,0],[0,1,0],[0.25,1,0],[0.5,1,0],[0.75,1,0],[1,1,0],[0,0.25,0],[0,0.5,0],[0,0.75,0],[1,0.25,0],[1,0.5,0],[1,0.75,0]];points=[[0,0,0],[0.25,0,0],[0.5,0,0],[0.75,0,0],[1,0,0],[0,1,0],[0.25,1,0],[0.5,1,0],[0.75,1,0],[1,1,0],[0,0.25,0],[0,0.5,0],[0,0.75,0],[1,0.25,0],[1,0.5,0],[1,0.75,0]];outlineConnect=0;fontColor=#232F3E;fillColor=#E7157B;strokeColor=#ffffff;dashed=0;verticalLabelPosition=bottom;verticalAlign=top;align=center;html=1;fontSize=12;fontStyle=0;aspect=fixed;shape=mxgraph.aws4.resourceIcon;resIcon=mxgraph.aws4.managed_service_for_grafana;" vertex="1" parent="G87gnfGh_C6f1je5w9Sp-19">
          <mxGeometry x="4.287739463601497" width="111" height="111" as="geometry" />
        </mxCell>
        <mxCell id="G87gnfGh_C6f1je5w9Sp-17" value="Grafana" style="text;html=1;align=center;verticalAlign=middle;whiteSpace=wrap;rounded=0;fontStyle=4" vertex="1" parent="G87gnfGh_C6f1je5w9Sp-19">
          <mxGeometry y="111.00448844884477" width="119.57547892720306" height="54.91089108910891" as="geometry" />
        </mxCell>
        <mxCell id="G87gnfGh_C6f1je5w9Sp-20" value="" style="group" vertex="1" connectable="0" parent="1">
          <mxGeometry x="935.0022605363986" y="115.69" width="119.57547892720305" height="194.91537953795375" as="geometry" />
        </mxCell>
        <mxCell id="G87gnfGh_C6f1je5w9Sp-10" value="" style="points=[[0,0.5,0],[0.24,0,0],[0.5,0.28,0],[0.995,0.475,0],[0.5,0.72,0],[0.24,1,0]];verticalLabelPosition=bottom;sketch=0;html=1;verticalAlign=top;aspect=fixed;align=center;pointerEvents=1;shape=mxgraph.cisco19.key;fillColor=#005073;strokeColor=none;direction=south;container=1;" vertex="1" parent="G87gnfGh_C6f1je5w9Sp-20">
          <mxGeometry x="28.287739463601497" width="63" height="140" as="geometry" />
        </mxCell>
        <mxCell id="G87gnfGh_C6f1je5w9Sp-12" value="Criptografia&lt;br/&gt;Simétrica" style="text;html=1;align=center;verticalAlign=middle;whiteSpace=wrap;rounded=0;fontStyle=4" vertex="1" parent="G87gnfGh_C6f1je5w9Sp-20">
          <mxGeometry y="140.00448844884482" width="119.57547892720306" height="54.91089108910891" as="geometry" />
        </mxCell>
        <mxCell id="G87gnfGh_C6f1je5w9Sp-21" value="" style="group" vertex="1" connectable="0" parent="1">
          <mxGeometry x="115.00226053639847" y="121.6079207920792" width="119.57547892720305" height="183.08745874587453" as="geometry" />
        </mxCell>
        <mxCell id="G87gnfGh_C6f1je5w9Sp-1" value="" style="points=[];aspect=fixed;html=1;align=center;shadow=0;dashed=0;fillColor=#FF6A00;strokeColor=none;shape=mxgraph.alibaba_cloud.apigateway;fontStyle=4" vertex="1" parent="G87gnfGh_C6f1je5w9Sp-21">
          <mxGeometry x="0.0002452107278827498" width="114.35498850574713" height="110.38858237547893" as="geometry" />
        </mxCell>
        <mxCell id="G87gnfGh_C6f1je5w9Sp-2" value="API Gateway" style="text;html=1;align=center;verticalAlign=middle;whiteSpace=wrap;rounded=0;fontStyle=4" vertex="1" parent="G87gnfGh_C6f1je5w9Sp-21">
          <mxGeometry y="128.17656765676566" width="119.57547892720306" height="54.91089108910891" as="geometry" />
        </mxCell>
        <mxCell id="G87gnfGh_C6f1je5w9Sp-22" value="" style="group" vertex="1" connectable="0" parent="1">
          <mxGeometry x="735.0022605363986" y="118.18" width="119.57547892720311" height="177.0853795379537" as="geometry" />
        </mxCell>
        <mxCell id="G87gnfGh_C6f1je5w9Sp-4" value="" style="sketch=0;points=[[0,0,0],[0.25,0,0],[0.5,0,0],[0.75,0,0],[1,0,0],[0,1,0],[0.25,1,0],[0.5,1,0],[0.75,1,0],[1,1,0],[0,0.25,0],[0,0.5,0],[0,0.75,0],[1,0.25,0],[1,0.5,0],[1,0.75,0]];outlineConnect=0;fontColor=#232F3E;fillColor=#C925D1;strokeColor=#ffffff;dashed=0;verticalLabelPosition=bottom;verticalAlign=top;align=center;html=1;fontSize=12;fontStyle=0;aspect=fixed;shape=mxgraph.aws4.resourceIcon;resIcon=mxgraph.aws4.rds;" vertex="1" parent="G87gnfGh_C6f1je5w9Sp-22">
          <mxGeometry x="4.787739463601497" width="110" height="110" as="geometry" />
        </mxCell>
        <mxCell id="G87gnfGh_C6f1je5w9Sp-5" value="RDS MYSQL" style="text;html=1;align=center;verticalAlign=middle;whiteSpace=wrap;rounded=0;fontStyle=4" vertex="1" parent="G87gnfGh_C6f1je5w9Sp-22">
          <mxGeometry y="122.17448844884484" width="119.57547892720306" height="54.91089108910891" as="geometry" />
        </mxCell>
        <mxCell id="G87gnfGh_C6f1je5w9Sp-23" value="" style="group" vertex="1" connectable="0" parent="1">
          <mxGeometry x="509.99540229885065" y="100.99501650165017" width="120.30459770114942" height="224.31237623762377" as="geometry" />
        </mxCell>
        <mxCell id="G87gnfGh_C6f1je5w9Sp-6" value="" style="outlineConnect=0;dashed=0;verticalLabelPosition=bottom;verticalAlign=top;align=center;html=1;shape=mxgraph.aws3.cloudwatch;fillColor=#759C3E;gradientColor=none;fontStyle=4" vertex="1" parent="G87gnfGh_C6f1je5w9Sp-23">
          <mxGeometry width="120.30459770114942" height="170.22376237623763" as="geometry" />
        </mxCell>
        <mxCell id="G87gnfGh_C6f1je5w9Sp-7" value="Cloud Watch" style="text;html=1;align=center;verticalAlign=middle;whiteSpace=wrap;rounded=0;fontStyle=4" vertex="1" parent="G87gnfGh_C6f1je5w9Sp-23">
          <mxGeometry x="0.7291187739463112" y="169.40148514851484" width="119.57547892720306" height="54.91089108910891" as="geometry" />
        </mxCell>
        <mxCell id="G87gnfGh_C6f1je5w9Sp-24" value="" style="group" vertex="1" connectable="0" parent="1">
          <mxGeometry x="309.9950191570881" y="108.7503300330033" width="119.57547892720311" height="195.94174917491745" as="geometry" />
        </mxCell>
        <mxCell id="G87gnfGh_C6f1je5w9Sp-8" value="" style="outlineConnect=0;dashed=0;verticalLabelPosition=bottom;verticalAlign=top;align=center;html=1;shape=mxgraph.aws3.sns;fillColor=#D9A741;gradientColor=none;fontStyle=4" vertex="1" parent="G87gnfGh_C6f1je5w9Sp-24">
          <mxGeometry x="4.010153256705053" width="111.5551724137931" height="140.02277227722772" as="geometry" />
        </mxCell>
        <mxCell id="G87gnfGh_C6f1je5w9Sp-9" value="SNS" style="text;html=1;align=center;verticalAlign=middle;whiteSpace=wrap;rounded=0;fontStyle=4" vertex="1" parent="G87gnfGh_C6f1je5w9Sp-24">
          <mxGeometry y="141.03085808580857" width="119.57547892720306" height="54.91089108910891" as="geometry" />
        </mxCell>
      </root>
    </mxGraphModel>
  </diagram>
</mxfile>
